<svg xmlns="http://www.w3.org/2000/svg" version="1.1" xmlns:xlink="http://www.w3.org/1999/xlink" width="512" height="512" x="0" y="0" viewBox="0 0 322 322" style="enable-background:new 0 0 512 512" xml:space="preserve" class=""><g><path d="M275.445 135.123c.387-45.398-38.279-87.016-86.192-92.771-.953-.113-1.991-.285-3.09-.467-2.372-.393-4.825-.797-7.3-.797-9.82 0-12.445 6.898-13.136 11.012-.672 4-.031 7.359 1.902 9.988 3.252 4.422 8.974 5.207 13.57 5.836 1.347.186 2.618.359 3.682.598 43.048 9.619 57.543 24.742 64.627 67.424.173 1.043.251 2.328.334 3.691.309 5.102.953 15.717 12.365 15.717h.001c.95 0 1.971-.082 3.034-.244 10.627-1.615 10.294-11.318 10.134-15.98-.045-1.313-.088-2.555.023-3.381.03-.208.045-.417.046-.626z" fill="#f4ce14" opacity="1" data-original="#000000" class=""></path><path d="M176.077 25.688c1.275.092 2.482.18 3.487.334 70.689 10.871 103.198 44.363 112.207 115.605.153 1.211.177 2.688.202 4.252.09 5.566.275 17.145 12.71 17.385l.386.004c3.9 0 7.002-1.176 9.221-3.498 3.871-4.049 3.601-10.064 3.383-14.898-.053-1.186-.104-2.303-.091-3.281.899-72.862-62.171-138.933-134.968-141.39-.302-.01-.59.006-.881.047a6.09 6.09 0 0 1-.862.047c-.726 0-1.619-.063-2.566-.127C177.16.09 175.862 0 174.546 0c-11.593 0-13.797 8.24-14.079 13.152-.65 11.352 10.332 12.151 15.61 12.536zM288.36 233.703a224.924 224.924 0 0 1-4.512-3.508c-7.718-6.211-15.929-11.936-23.87-17.473a1800.92 1800.92 0 0 1-4.938-3.449c-10.172-7.145-19.317-10.617-27.957-10.617-11.637 0-21.783 6.43-30.157 19.109-3.71 5.621-8.211 8.354-13.758 8.354-3.28 0-7.007-.936-11.076-2.783-32.833-14.889-56.278-37.717-69.685-67.85-6.481-14.564-4.38-24.084 7.026-31.832 6.477-4.396 18.533-12.58 17.679-28.252-.967-17.797-40.235-71.346-56.78-77.428-7.005-2.576-14.365-2.6-21.915-.06-19.02 6.394-32.669 17.623-39.475 32.471-6.577 14.347-6.28 31.193.859 48.717 20.638 50.666 49.654 94.84 86.245 131.293 35.816 35.684 79.837 64.914 130.839 86.875 4.597 1.978 9.419 3.057 12.94 3.844 1.2.27 2.236.5 2.991.707.415.113.843.174 1.272.178l.403.002h.002c23.988 0 52.791-21.92 61.637-46.91 7.75-21.882-6.4-32.698-17.77-41.388zM186.687 83.564c-4.107.104-12.654.316-15.653 9.021-1.403 4.068-1.235 7.6.5 10.498 2.546 4.252 7.424 5.555 11.861 6.27 16.091 2.582 24.355 11.48 26.008 28 .768 7.703 5.955 13.082 12.615 13.082h.001c.492 0 .995-.029 1.496-.09 8.01-.953 11.893-6.838 11.542-17.49.128-11.117-5.69-23.738-15.585-33.791-9.929-10.084-21.898-15.763-32.785-15.5z" fill="#f4ce14" opacity="1" data-original="#000000" class=""></path></g></svg>